# xmcd
#
# Track frame offsets:
#	150
#	11452
#	24352
#	35352
#	48190
#	59740
#	73590
#	84052
#	97652
#	110040
#	121765
#	130952
#	143352
#	156915
#	168490
#	182952
#	195477
#	204977
#	216852
#	229240
#	241977
#
# Disc length: 3347 seconds
#
# Revision: 0
# Processed by: cddbd v1.5.2PL0 Copyright (c) Steve Scherf et al.
# Submitted via: EasyCDDAExtractor 11.0.3.1
#
DISCID=130d1115
DTITLE=Billy Grammer - Gotta Travel On
DYEAR=1900
DGENRE=Oldies
TTITLE0=Gotta Travel On
TTITLE1=Midnight
TTITLE2=Poor Old Heartsick Me
TTITLE3=One Thousand Concrete Blocks
TTITLE4=Barrel House Bessie
TTITLE5=Sweet Kitty Wells
TTITLE6=A Thousand Miles Ago
TTITLE7=Run Boy
TTITLE8=My Lucky Love
TTITLE9=Give Myself a Party
TTITLE10=You Know I Do
TTITLE11=How's The World Treating You
TTITLE12=Mom And Dads Waltz
TTITLE13=Stepping Out
TTITLE14=Thats Life
TTITLE15=Who's Gonna Buy You Ribbons
TTITLE16=Bonapartes Retreat
TTITLE17=Family Man
TTITLE18=What We've Got In Common Is Love
TTITLE19=The Kissin' Tree
TTITLE20=The Whipporwell Song
EXTD=
EXTT0=
EXTT1=
EXTT2=
EXTT3=
EXTT4=
EXTT5=
EXTT6=
EXTT7=
EXTT8=
EXTT9=
EXTT10=
EXTT11=
EXTT12=
EXTT13=
EXTT14=
EXTT15=
EXTT16=
EXTT17=
EXTT18=
EXTT19=
EXTT20=
PLAYORDER=
